<?xml version="1.0" standalone="no"?>
<!DOCTYPE svg PUBLIC "-//W3C//DTD SVG 20010904//EN"
 "http://www.w3.org/TR/2001/REC-SVG-20010904/DTD/svg10.dtd">
<svg version="1.0" xmlns="http://www.w3.org/2000/svg"
 width="677.000000pt" height="369.000000pt" viewBox="0 0 677.000000 369.000000"
 preserveAspectRatio="xMidYMid meet">
<metadata>
Created by potrace 1.16, written by Peter Selinger 2001-2019
</metadata>
<g transform="translate(0.000000,369.000000) scale(0.100000,-0.100000)"
fill="#E8C840" stroke="none">
<path d="M3245 3173 c-4 -21 -24 -101 -45 -178 -31 -115 -79 -311 -106 -434
-10 -47 -12 -14 -3 69 5 55 5 88 -2 95 -17 17 -26 -12 -33 -108 -4 -51 -29
-272 -56 -492 -27 -220 -63 -515 -80 -655 -42 -346 -28 -308 -111 -316 -48 -5
-69 -11 -69 -20 0 -11 17 -14 68 -14 l67 0 -3 -60 -4 -60 -179 0 -179 0 0 -25
0 -25 120 0 c66 0 120 -3 120 -7 0 -8 -51 -77 -107 -146 -23 -29 -64 -80 -90
-114 l-48 -62 -252 -1 c-138 0 -254 -4 -257 -9 -8 -13 34 -48 86 -71 26 -11
93 -28 150 -38 92 -15 196 -17 1003 -17 813 0 909 2 997 17 139 25 228 69 228
112 0 3 -151 6 -336 6 l-336 0 17 27 c10 16 52 68 94 116 42 48 78 93 80 100
2 7 17 29 33 50 l30 37 109 0 109 0 0 25 0 25 -655 0 -655 0 0 28 c0 15 3 43
6 63 l6 36 107 23 c115 24 277 79 381 129 36 17 70 31 77 31 27 0 285 186 375
269 99 94 245 257 268 301 7 14 38 63 68 109 52 80 142 258 142 282 0 21 -24
3 -34 -27 -47 -126 -272 -444 -401 -566 -70 -66 -231 -198 -241 -198 -6 0 -36
-18 -66 -39 -78 -54 -216 -124 -323 -161 -111 -39 -263 -85 -310 -94 -34 -7
-35 -6 -35 26 0 42 46 529 60 628 5 41 17 138 25 215 26 254 66 481 141 800
73 314 77 330 82 343 2 6 -3 12 -11 12 -11 0 -18 -13 -22 -37z m-383 -2264
c-4 -34 -30 -71 -107 -154 -76 -82 -117 -75 437 -74 l493 0 58 73 c33 39 63
79 68 89 9 16 -18 17 -431 17 l-441 0 3 43 3 42 508 3 c303 1 507 -2 507 -7 0
-9 -60 -86 -129 -168 -20 -22 -54 -66 -76 -97 l-40 -55 -568 -1 -567 0 72 93
c141 180 190 238 202 234 6 -2 10 -18 8 -38z"/>
<path d="M3286 3028 c-8 -29 -20 -71 -26 -93 -6 -22 -15 -67 -20 -100 -5 -33
-22 -123 -39 -200 -60 -277 -132 -769 -146 -1000 -7 -121 -24 -320 -30 -357
-3 -18 0 -28 8 -28 21 0 247 66 302 88 72 29 269 137 347 191 96 66 151 114
256 220 80 81 232 268 232 285 0 3 16 31 35 63 39 65 43 83 18 83 -34 0 -189
77 -289 143 -64 42 -141 106 -215 179 -161 160 -217 236 -332 445 -39 73 -75
133 -79 133 -4 0 -14 -24 -22 -52z"/>
<path d="M1865 1069 c-4 -6 -4 -31 -1 -57 21 -151 63 -244 136 -297 l48 -35
215 0 215 0 36 48 c19 26 52 66 72 90 l37 42 -79 0 c-131 0 -345 19 -409 35
-33 9 -84 27 -113 40 -48 22 -56 30 -79 85 -21 48 -31 60 -49 60 -13 0 -26 -5
-29 -11z"/>
<path d="M4846 1048 c-56 -134 -179 -174 -567 -185 l-236 -6 -66 -86 -65 -86
304 -3 304 -2 0 -30 c0 -35 4 -36 91 -12 182 51 286 179 292 360 2 73 1 77
-21 80 -17 3 -26 -4 -36 -30z"/>
</g>
</svg>
